<svg width="22" height="20" viewBox="0 0 22 20" fill="none" xmlns="http://www.w3.org/2000/svg">
<path d="M10.446 14.233C10.4673 14.2601 10.4944 14.2821 10.5255 14.2972C10.5565 14.3123 10.5905 14.3202 10.625 14.3202C10.6595 14.3202 10.6935 14.3123 10.7245 14.2972C10.7556 14.2821 10.7827 14.2601 10.804 14.233L13.9858 10.2074C14.1023 10.0597 13.9972 9.84091 13.8068 9.84091H11.7017V0.227273C11.7017 0.102273 11.5994 0 11.4744 0H9.76989C9.64489 0 9.54261 0.102273 9.54261 0.227273V9.83807H7.44318C7.25284 9.83807 7.14773 10.0568 7.2642 10.2045L10.446 14.233ZM21.0227 13.2386H19.3182C19.1932 13.2386 19.0909 13.3409 19.0909 13.4659V17.8409H2.15909V13.4659C2.15909 13.3409 2.05682 13.2386 1.93182 13.2386H0.227273C0.102273 13.2386 0 13.3409 0 13.4659V19.0909C0 19.5938 0.40625 20 0.909091 20H20.3409C20.8438 20 21.25 19.5938 21.25 19.0909V13.4659C21.25 13.3409 21.1477 13.2386 21.0227 13.2386Z" fill="#F1F1F1"/>
</svg>
